<?xml version="1.0" encoding="utf-8"?>
<!DOCTYPE svg PUBLIC "-//W3C//DTD SVG 1.1//EN" "http://www.w3.org/Graphics/SVG/1.1/DTD/svg11.dtd">
<svg version="1.1" id="Layer_1" xmlns="http://www.w3.org/2000/svg" xmlns:xlink="http://www.w3.org/1999/xlink" x="0px" y="0px"
	 width="14px" height="14.001px" viewBox="0 0 14 14.001" fill="#333333" enable-background="new 0 0 14 14.001" xml:space="preserve">
<path d="M1.184,7.105l2.071-2.063c0.516-0.516,1.124-0.87,1.809-1.047c0.693-0.185,1.386-0.185,2.079,0
	c0.693,0.177,1.302,0.531,1.816,1.047c0.216,0.215,0.324,0.477,0.324,0.785c0,0.301-0.108,0.562-0.324,0.778
	C8.744,6.82,8.481,6.928,8.174,6.928c-0.3,0-0.562-0.108-0.777-0.323C7.035,6.243,6.603,6.065,6.103,6.065
	c-0.5,0-0.931,0.177-1.278,0.539l-2.071,2.07C2.407,9.036,2.231,9.467,2.231,9.968s0.176,0.925,0.523,1.286
	C3.116,11.6,3.54,11.777,4.04,11.777c0.501,0,0.924-0.178,1.286-0.523l0.423-0.432c0.816,0.393,1.679,0.577,2.587,0.555
	l-1.439,1.439c-1.509,1.579-4.204,1.579-5.713,0C-0.395,11.308-0.395,8.614,1.184,7.105L1.184,7.105z M5.048,7.389
	c0.216-0.215,0.477-0.323,0.777-0.323c0.308,0,0.569,0.107,0.785,0.323c0.347,0.362,0.778,0.539,1.278,0.539
	c0.501,0,0.932-0.177,1.294-0.539l2.071-2.07c0.362-0.361,0.538-0.785,0.538-1.285c0-0.5-0.176-0.932-0.538-1.278
	c-0.348-0.362-0.778-0.539-1.279-0.539c-0.5,0-0.931,0.177-1.293,0.539L8.251,3.172C7.442,2.787,6.58,2.602,5.672,2.617l1.439-1.439
	c0.517-0.516,1.124-0.862,1.817-1.039c0.692-0.185,1.385-0.185,2.078,0c0.693,0.177,1.295,0.523,1.81,1.039
	c1.578,1.509,1.578,4.203,0,5.711l-2.071,2.063c-0.516,0.515-1.124,0.87-1.816,1.055c-0.693,0.185-1.386,0.185-2.078,0
	c-0.686-0.185-1.287-0.54-1.802-1.055C4.825,8.737,4.717,8.475,4.717,8.175C4.717,7.867,4.825,7.605,5.048,7.389z"/>
</svg>
